<svg data-v-0dd9719b="" version="1.0" xmlns="http://www.w3.org/2000/svg" xmlns:xlink="http://www.w3.org/1999/xlink" width="100%" height="100%" viewBox="0 0 340.000000 250.000000" preserveAspectRatio="xMidYMid meet" color-interpolation-filters="sRGB" style="margin: auto;"> <rect data-v-0dd9719b="" x="0" y="0" width="100%" height="100%" fill="#fff" fill-opacity="1" class="background"></rect> <rect data-v-0dd9719b="" x="0" y="0" width="100%" height="100%" fill="url(#watermark)" fill-opacity="1" class="watermarklayer"></rect> <g data-v-0dd9719b="" fill="#138f2e" class="icon-text-wrapper icon-svg-group iconsvg" transform="translate(48.80500030517578,95)"><g class="iconsvg-imagesvg" transform="translate(0,0)"><g><rect fill="#138f2e" fill-opacity="0" stroke-width="2" x="0" y="0" width="60" height="60" class="image-rect"></rect> <svg x="0" y="0" width="60" height="60" filtersec="colorsb831459860" class="image-svg-svg primary" style="overflow: visible;"><svg version="1.1" id="图层_1" xmlns="http://www.w3.org/2000/svg" xmlns:xlink="http://www.w3.org/1999/xlink" x="0px" y="0px" viewBox="1.7599999904632568 1.8400020599365234 102.23999786376953 102.23999786376953" enable-background="new 0 0 106 106" xml:space="preserve">
<path fill="#138F2E" d="M89.19,1.85l-0.35,1.87c-2.6,14.22-15.63,30.65-33.98,42.86c-3.03,2.02-6.2,3.91-9.43,5.62l-1.05,0.56
	l-0.98-0.68c-7.95-5.51-12.15-12.18-12.15-19.28c0-8.35,5.92-16.18,16.66-22.04c8.68-4.74,19.87-7.81,32.02-8.92H1.76v43.87
	l0.73-0.26c8.45-3.01,21.26-1.14,33.43,4.89c2.01,0.99,3.99,2.1,5.88,3.28l1.01,0.63l-0.1,1.19c-0.5,6.11-2.86,10.55-6.82,12.84
	c-9.24,5.34-23.85-3.06-34.12-19.52v55.32h58.02c-8.24-7.51-13.98-22.32-15.05-38.98c-0.18-2.82-0.22-5.69-0.11-8.52l0.03-1.19
	l1.08-0.5c6.89-3.26,13.11-3.49,18-0.68c5.53,3.19,8.55,9.93,8.55,19.03c0,0.34,0,0.67-0.02,1.01c-0.22,9.13-3.35,19.71-8.82,29.82
	H104V1.85H89.19z"></path>
</svg></svg> <!----></g></g> <g transform="translate(67,15.569999694824219)"><g data-gra="path-name" fill-rule="" class="tp-name iconsvg-namesvg"><g transform="scale(1)"><g><path d="M10.23 0.4C18.92 0.4 21.63-2.87 21.63-8.45 21.63-13.54 20.78-15.77 13.79-17.59 10.31-18.48 9.7-18.76 9.7-20.05 9.7-21.39 10.71-21.99 13.3-21.99 15.53-21.99 19.04-21.47 20.22-21.02L20.22-27.45C18.64-27.98 16.46-28.46 12.94-28.46 6.23-28.46 1.94-26.36 1.94-19.73 1.94-14.76 3.4-12.82 9.54-11.4 13.06-10.55 13.58-9.87 13.58-8.69 13.58-6.95 13.14-6.39 9.78-6.39 7.28-6.39 4-6.91 2.14-7.44L2.14-0.53C4.12-0.04 7.12 0.4 10.23 0.4ZM34.12 0L42.25 0 42.25-10.63 52.68-28.06 43.54-28.06 38.33-18.03 38.09-18.03 33.27-28.06 23.77-28.06 34.12-10.39ZM68.98 0.4C72.41 0.4 76.42-0.24 78.56-0.89L78.56-17.1 67.04-17.1 67.04-10.39 71.16-10.39 71.16-6.31C70.55-6.27 70.47-6.27 69.38-6.27 64.37-6.27 63.56-8.17 63.56-14.03 63.56-19.65 65.05-21.67 69.74-21.67 71.89-21.67 74.47-21.31 76.74-20.54L76.74-27.53C75.08-28.06 71.77-28.46 69.06-28.46 60.2-28.46 54.66-24.87 54.66-14.03 54.66-2.26 59.96 0.4 68.98 0.4ZM83.65 0L91.58 0 91.58-18.76 91.82-18.76 98.49 0 109.69 0 109.69-28.06 101.85-28.06 101.85-10.47 101.6-10.47 95.78-28.06 83.65-28.06ZM127.52 0.4C135.4 0.4 140.18-2.35 140.18-9.5L140.18-28.06 132.17-28.06 132.17-10.07C132.17-8.57 131.52-6.47 127.52-6.47 123.64-6.47 122.95-8.25 122.95-10.07L122.95-28.06 114.91-28.06 114.91-9.5C114.91-1.62 119.64 0.4 127.52 0.4ZM145.43 0L153.23 0 153.23-20.34 153.48-20.34 157.36-4.49 165.2-4.49 169.2-20.34 169.45-20.34 169.45 0 177.33 0 177.33-28.06 164.68-28.06 161.56-13.99 161.32-13.99 158.57-28.06 145.43-28.06Z" transform="translate(-1.9399986267089844, 28.459999084472656)"></path></g> <!----> <!----> <!----> <!----> <!----> <!----> <!----></g></g> <!----></g></g><defs v-gra="od"></defs></svg>